<svg width="182" height="118" viewBox="0 0 182 118" fill="none" xmlns="http://www.w3.org/2000/svg">
<path d="M14.5841 19.127C10.11 19.9159 6.07877 22.1451 3.37729 25.3243C0.675801 28.5035 -0.474648 32.3722 0.179023 36.0794L3.25986 53.5517C3.58669 55.4052 4.78881 57.0262 6.60177 58.0579C8.41473 59.0897 10.69 59.4477 12.9271 59.0533C16.2827 58.4616 19.6956 58.9986 22.4151 60.5463C25.1345 62.0939 26.9377 64.5253 27.4279 67.3057C27.9182 70.0861 27.0553 72.9876 25.0292 75.372C23.0031 77.7564 19.9797 79.4283 16.6241 80.02C14.387 80.4145 12.3714 81.5291 11.0207 83.1187C9.66991 84.7083 9.09469 86.6426 9.42153 88.4962L12.5024 105.968C13.156 109.676 15.5603 112.918 19.1862 114.981C22.8121 117.045 27.3627 117.761 31.8368 116.972L166.795 93.1749C171.269 92.386 175.3 90.1568 178.002 86.9776C180.703 83.7984 181.854 79.9297 181.2 76.2225L178.119 58.7502C177.793 56.8967 176.59 55.2757 174.777 54.2439C172.965 53.2122 170.689 52.8542 168.452 53.2486C165.097 53.8403 161.684 53.3033 158.964 51.7556C156.245 50.208 154.442 47.7766 153.951 44.9962C153.461 42.2158 154.324 39.3143 156.35 36.9299C158.376 34.5455 161.4 32.8736 164.755 32.2819C166.992 31.8874 169.008 30.7728 170.359 29.1832C171.709 27.5936 172.285 25.6593 171.958 23.8057L168.877 6.3334C168.223 2.62625 165.819 -0.615671 162.193 -2.67917C158.567 -4.74268 154.017 -5.45874 149.542 -4.66982L14.5841 19.127Z" fill="url(#paint0_linear_28643_121860)"/>
<defs>
<linearGradient id="paint0_linear_28643_121860" x1="82.0633" y1="7.22857" x2="99.316" y2="105.073" gradientUnits="userSpaceOnUse">
<stop stop-color="#8288F8"/>
<stop offset="1" stop-color="#5F66F6"/>
</linearGradient>
</defs>
</svg>
