<svg width="200" height="116" viewBox="0 0 200 116" fill="none" xmlns="http://www.w3.org/2000/svg">
<path d="M20 0C14.6957 0 9.60859 1.74591 5.85786 4.85366C2.10714 7.9614 0 12.1764 0 16.5714V37.2857C0 39.4832 1.05357 41.5907 2.92893 43.1446C4.8043 44.6985 7.34784 45.5714 10 45.5714C13.9782 45.5714 17.7936 46.8809 20.6066 49.2117C23.4196 51.5425 25 54.7037 25 58C25 61.2963 23.4196 64.4575 20.6066 66.7883C17.7936 69.1191 13.9782 70.4286 10 70.4286C7.34784 70.4286 4.8043 71.3015 2.92893 72.8554C1.05357 74.4093 0 76.5168 0 78.7143V99.4286C0 103.824 2.10714 108.039 5.85786 111.146C9.60859 114.254 14.6957 116 20 116H180C185.304 116 190.391 114.254 194.142 111.146C197.893 108.039 200 103.824 200 99.4286V78.7143C200 76.5168 198.946 74.4093 197.071 72.8554C195.196 71.3015 192.652 70.4286 190 70.4286C186.022 70.4286 182.206 69.1191 179.393 66.7883C176.58 64.4575 175 61.2963 175 58C175 54.7037 176.58 51.5425 179.393 49.2117C182.206 46.8809 186.022 45.5714 190 45.5714C192.652 45.5714 195.196 44.6985 197.071 43.1446C198.946 41.5907 200 39.4832 200 37.2857V16.5714C200 12.1764 197.893 7.9614 194.142 4.85366C190.391 1.74591 185.304 0 180 0H20Z" fill="url(#paint0_linear_29208_4369)"/>
<defs>
<linearGradient id="paint0_linear_29208_4369" x1="100" y1="0" x2="100" y2="116" gradientUnits="userSpaceOnUse">
<stop stop-color="#A6AAFA"/>
<stop offset="1" stop-color="#5F66F6"/>
</linearGradient>
</defs>
</svg>
