<svg width="16" height="16" viewBox="0 0 16 16" fill="none" xmlns="http://www.w3.org/2000/svg">
<path d="M7.40039 13V8.59961H3C2.66863 8.59961 2.40039 8.33137 2.40039 8C2.40039 7.66863 2.66863 7.40039 3 7.40039H7.40039V3C7.40039 2.66863 7.66863 2.40039 8 2.40039C8.33137 2.40039 8.59961 2.66863 8.59961 3V7.40039H13C13.3314 7.40039 13.5996 7.66863 13.5996 8C13.5996 8.33137 13.3314 8.59961 13 8.59961H8.59961V13C8.59961 13.3314 8.33137 13.5996 8 13.5996C7.66863 13.5996 7.40039 13.3314 7.40039 13Z" fill="currentColor"/>
</svg>
